<?xml version="1.0" encoding="utf-8"?>
<svg version="1.1" id="LogoOrt" xmlns="http://www.w3.org/2000/svg" xmlns:xlink="http://www.w3.org/1999/xlink" x="0px" y="0px"
	 width="243px" height="121.5px" viewBox="0 0 243 121.5" style="enable-background:new 0 0 243 121.5;" xml:space="preserve">
<style type="text/css">
	.st0{fill-rule:evenodd;clip-rule:evenodd;fill:#fff;}
</style>
<g>
	<path class="st0" d="M85.849,99.346c0.53,0,0.945,0.058,1.235,0.159c0.188,0.069,0.348,0.193,0.468,0.372
		c0.121,0.173,0.183,0.468,0.183,0.883v3.743c0,0.97-0.126,1.659-0.371,2.051c-0.251,0.39-0.627,0.699-1.129,0.921
		c-0.502,0.222-1.109,0.338-1.824,0.338c-0.622,0-1.134-0.092-1.538-0.265c-0.415-0.173-0.704-0.401-0.883-0.666
		c-0.179-0.265-0.265-0.805-0.265-1.625v-4.496c0-0.525,0.039-0.854,0.121-0.99c0.081-0.126,0.217-0.231,0.409-0.309
		c0.193-0.072,0.546-0.116,1.057-0.116h0.348v-0.247h-6.822v0.247c0.56-0.005,0.941,0.04,1.147,0.116
		c0.213,0.078,0.358,0.179,0.44,0.309c0.087,0.126,0.13,0.459,0.13,0.99v4.496c0,0.762,0.173,1.37,0.521,1.818
		c0.352,0.45,0.951,0.82,1.799,1.111c0.623,0.213,1.506,0.318,2.644,0.318c1.37,0,2.446-0.202,3.237-0.603
		c0.792-0.401,1.288-0.845,1.492-1.316c0.207-0.482,0.309-1.259,0.309-2.34v-3.483c0-0.377,0.042-0.637,0.125-0.782
		c0.112-0.211,0.29-0.366,0.536-0.473c0.246-0.101,0.554-0.159,0.925-0.159h0.266v-0.247h-4.559V99.346z"/>
	<path class="st0" d="M101.494,101.995c-0.217-0.153-0.507-0.237-0.863-0.237c-0.424,0-0.864,0.11-1.317,0.327
		c-0.453,0.213-0.984,0.652-1.587,1.307l-0.005-1.437h-3.725v0.237c0.309,0.025,0.531,0.063,0.656,0.121
		c0.121,0.063,0.218,0.153,0.284,0.285c0.048,0.101,0.078,0.338,0.078,0.704v3.498c0,0.554-0.072,0.897-0.212,1.028
		c-0.14,0.135-0.41,0.208-0.806,0.231v0.236h4.926v-0.236c-0.357-0.015-0.617-0.049-0.772-0.105
		c-0.153-0.054-0.265-0.146-0.348-0.271c-0.042-0.072-0.067-0.236-0.067-0.491v-0.388l-0.005-1.461c0-0.525,0.102-1.013,0.309-1.446
		c0.135-0.291,0.339-0.507,0.603-0.663c0.164-0.101,0.348-0.148,0.531-0.148c0.087,0,0.159,0.014,0.222,0.042
		c0.043,0.016,0.198,0.101,0.449,0.253c0.251,0.153,0.55,0.237,0.893,0.237c0.299,0,0.554-0.087,0.762-0.251
		c0.212-0.17,0.319-0.406,0.319-0.71C101.819,102.371,101.712,102.154,101.494,101.995z"/>
	<path class="st0" d="M114.092,106.921v-4.966h-3.711v0.237c0.401,0.04,0.666,0.112,0.796,0.233
		c0.126,0.119,0.193,0.423,0.193,0.912v3.382c-0.361,0.356-0.671,0.589-0.932,0.708c-0.182,0.083-0.396,0.125-0.622,0.125
		c-0.179,0-0.332-0.032-0.463-0.101c-0.135-0.067-0.226-0.163-0.294-0.293c-0.058-0.13-0.087-0.424-0.087-0.879v-4.323h-3.71v0.237
		c0.401,0.04,0.665,0.112,0.795,0.233c0.126,0.119,0.189,0.423,0.189,0.912v2.508c0,0.733,0.072,1.246,0.208,1.538
		c0.135,0.291,0.4,0.549,0.801,0.767c0.396,0.222,0.85,0.329,1.361,0.329c0.535,0,1.022-0.078,1.453-0.242
		c0.433-0.164,0.868-0.43,1.302-0.787v0.845h3.71v-0.236c-0.4-0.027-0.665-0.105-0.796-0.231
		C114.155,107.712,114.092,107.409,114.092,106.921z"/>
	<path class="st0" d="M126.805,107.877c-0.512-0.208-1.457-0.314-2.818-0.314l-1.694,0.02c-0.405,0-0.694-0.054-0.873-0.159
		c-0.179-0.101-0.27-0.237-0.27-0.401c0-0.184,0.101-0.343,0.299-0.473c0.202-0.135,0.443-0.202,0.739-0.202
		c0.738,0.023,1.124,0.034,1.167,0.034c0.478,0,1.027-0.092,1.65-0.28c0.612-0.19,1.109-0.45,1.471-0.782
		c0.358-0.329,0.535-0.724,0.535-1.177c0-0.265-0.077-0.522-0.237-0.762c-0.12-0.184-0.342-0.386-0.661-0.603h1.747v-0.744h-3.073
		c-0.646-0.182-1.269-0.274-1.873-0.274c-1.143,0-2.078,0.231-2.808,0.684c-0.723,0.453-1.09,0.99-1.09,1.612
		c0,0.471,0.198,0.892,0.589,1.255c0.386,0.359,1.018,0.65,1.896,0.872c-0.748,0.217-1.298,0.473-1.64,0.767
		c-0.348,0.294-0.521,0.592-0.521,0.906c0,0.516,0.424,0.917,1.269,1.201c-0.618,0.117-1.028,0.256-1.254,0.421
		c-0.228,0.164-0.338,0.352-0.338,0.563c0,0.217,0.149,0.421,0.439,0.619c0.294,0.197,0.776,0.35,1.457,0.462
		c0.68,0.112,1.428,0.164,2.248,0.164c1.095,0,2.06-0.112,2.9-0.329c0.554-0.15,1.003-0.381,1.336-0.695
		c0.338-0.318,0.511-0.666,0.511-1.051C127.909,108.615,127.538,108.171,126.805,107.877z M122.144,102.584
		c0.26-0.26,0.579-0.392,0.955-0.392c0.376,0,0.67,0.107,0.873,0.323c0.294,0.294,0.443,0.845,0.443,1.65
		c0,0.715-0.135,1.197-0.394,1.443c-0.261,0.251-0.584,0.372-0.971,0.372c-0.352,0-0.651-0.121-0.911-0.372
		c-0.256-0.251-0.382-0.715-0.382-1.385C121.758,103.398,121.883,102.853,122.144,102.584z M125.541,110.574
		c-0.522,0.168-1.231,0.249-2.138,0.249c-1.061,0-1.785-0.092-2.171-0.28c-0.381-0.188-0.573-0.399-0.573-0.63
		c0-0.242,0.183-0.435,0.554-0.574c0.217-0.078,0.656-0.117,1.322-0.117c1.535,0,2.485,0.029,2.837,0.072
		c0.358,0.054,0.628,0.145,0.801,0.285c0.097,0.078,0.145,0.17,0.145,0.285C126.317,110.168,126.056,110.405,125.541,110.574z"/>
	<path class="st0" d="M140.159,106.921v-4.966h-3.705v0.237c0.401,0.04,0.666,0.112,0.796,0.233c0.13,0.119,0.192,0.423,0.192,0.912
		v3.382c-0.361,0.356-0.67,0.589-0.931,0.708c-0.183,0.083-0.396,0.125-0.628,0.125c-0.173,0-0.323-0.032-0.458-0.101
		c-0.13-0.067-0.227-0.163-0.29-0.293c-0.062-0.13-0.092-0.424-0.092-0.879v-4.323h-3.714v0.237c0.41,0.04,0.675,0.112,0.801,0.233
		c0.13,0.119,0.193,0.423,0.193,0.912v2.508c0,0.733,0.068,1.246,0.202,1.538c0.135,0.291,0.405,0.549,0.801,0.767
		c0.396,0.222,0.85,0.329,1.361,0.329c0.535,0,1.023-0.078,1.453-0.242c0.434-0.164,0.868-0.43,1.302-0.787v0.845h3.705v-0.236
		c-0.395-0.027-0.661-0.105-0.791-0.231C140.226,107.712,140.159,107.409,140.159,106.921z"/>
	<path class="st0" d="M153.156,107.51c-0.078,0-0.159-0.02-0.222-0.052c-0.062-0.034-0.111-0.094-0.144-0.164
		c-0.029-0.078-0.043-0.262-0.043-0.545v-2.467c0-0.681-0.049-1.118-0.14-1.307c-0.15-0.3-0.478-0.574-0.975-0.829
		c-0.506-0.256-1.186-0.386-2.05-0.386c-0.719,0-1.404,0.083-2.065,0.24c-0.661,0.155-1.177,0.388-1.548,0.681
		c-0.372,0.294-0.555,0.609-0.555,0.937c0,0.226,0.14,0.428,0.415,0.598c0.275,0.173,0.618,0.26,1.027,0.26
		c0.381,0,0.695-0.078,0.932-0.236c0.236-0.154,0.357-0.341,0.357-0.56c0-0.182-0.126-0.372-0.372-0.569
		c-0.183-0.135-0.275-0.251-0.275-0.347c0-0.112,0.082-0.208,0.252-0.291c0.28-0.13,0.622-0.193,1.042-0.193
		c0.261,0,0.492,0.045,0.695,0.135c0.211,0.098,0.351,0.204,0.424,0.329c0.077,0.126,0.11,0.424,0.11,0.912v0.632
		c-1.997,0.646-3.3,1.157-3.893,1.544c-0.598,0.386-0.897,0.825-0.897,1.307c0,0.352,0.169,0.652,0.516,0.888
		c0.342,0.24,0.772,0.356,1.293,0.356c0.883,0,1.872-0.341,2.981-1.022c0.063,0.343,0.246,0.598,0.536,0.767
		c0.294,0.173,0.694,0.255,1.215,0.255c0.444,0,0.835-0.072,1.187-0.226c0.342-0.15,0.68-0.395,1.008-0.733l-0.294-0.161
		C153.498,107.427,153.33,107.51,153.156,107.51z M150.019,106.867c-0.424,0.251-0.801,0.372-1.119,0.372
		c-0.29,0-0.521-0.058-0.681-0.184c-0.212-0.153-0.318-0.336-0.318-0.545c0-0.249,0.126-0.497,0.376-0.74
		c0.381-0.363,0.965-0.706,1.742-1.029V106.867z"/>
	<path class="st0" d="M163.572,102.192c0.4,0.005,0.68,0.063,0.84,0.164c0.159,0.101,0.241,0.237,0.241,0.406
		c0,0.264-0.192,0.746-0.579,1.432l-1.056,1.93l-1.558-2.494c-0.329-0.513-0.488-0.854-0.488-1.027c0-0.112,0.062-0.204,0.192-0.285
		c0.131-0.072,0.353-0.121,0.671-0.126v-0.237h-4.844v0.237c0.294,0.063,0.55,0.173,0.763,0.338c0.211,0.17,0.535,0.609,0.974,1.322
		l2.948,4.715l-0.29,0.516c-0.347,0.679-0.651,1.111-0.911,1.298c-0.174,0.134-0.338,0.202-0.497,0.202
		c-0.097,0-0.169-0.031-0.217-0.078c-0.054-0.049-0.088-0.159-0.097-0.334c-0.005-0.298-0.107-0.52-0.304-0.67
		c-0.193-0.139-0.459-0.217-0.786-0.217c-0.338,0-0.618,0.087-0.85,0.26c-0.231,0.17-0.347,0.386-0.347,0.648
		c0,0.307,0.168,0.563,0.502,0.776c0.332,0.211,0.771,0.318,1.312,0.318c0.671,0,1.235-0.19,1.684-0.565
		c0.319-0.271,0.805-0.993,1.456-2.167l2.601-4.704c0.443-0.805,0.762-1.277,0.945-1.417c0.193-0.135,0.43-0.217,0.733-0.242v-0.237
		h-3.039V102.192z"/>
	<path class="st0" d="M15.918,84.858c0.56,0,0.999,0.049,1.303,0.155c0.198,0.067,0.361,0.188,0.491,0.361
		c0.131,0.173,0.193,0.473,0.193,0.879v3.689c0,0.966-0.13,1.636-0.391,2.022c-0.265,0.392-0.655,0.695-1.182,0.915
		c-0.525,0.218-1.163,0.329-1.91,0.329c-0.651,0-1.192-0.087-1.616-0.26c-0.429-0.17-0.738-0.39-0.922-0.652
		c-0.188-0.265-0.284-0.8-0.284-1.611v-4.433c0-0.522,0.043-0.85,0.13-0.98c0.088-0.13,0.232-0.231,0.425-0.309
		c0.202-0.072,0.573-0.107,1.11-0.107h0.357v-0.24H6.5v0.24c0.579-0.004,0.979,0.029,1.196,0.107
		c0.222,0.078,0.367,0.179,0.459,0.309c0.087,0.13,0.135,0.453,0.135,0.98v4.433c0,0.748,0.178,1.351,0.544,1.795
		c0.371,0.444,0.999,0.811,1.881,1.096c0.656,0.206,1.578,0.312,2.774,0.312c1.433,0,2.557-0.197,3.387-0.598
		c0.825-0.397,1.346-0.825,1.564-1.298c0.211-0.468,0.318-1.239,0.318-2.306v-3.434c0-0.372,0.043-0.632,0.13-0.776
		c0.121-0.209,0.304-0.363,0.564-0.464c0.261-0.107,0.584-0.155,0.975-0.155h0.284v-0.24h-4.795V84.858z"/>
	<path class="st0" d="M33.271,84.858c0.772-0.009,1.317,0.116,1.646,0.372c0.236,0.199,0.357,0.565,0.357,1.111v3.893l-6.807-5.616
		h-4.907v0.24c0.425,0.011,0.748,0.049,0.97,0.126c0.227,0.078,0.483,0.242,0.772,0.486l0.304,0.242V92.1
		c0,0.487-0.15,0.834-0.449,1.036c-0.3,0.202-0.825,0.303-1.583,0.309v0.242h4.893v-0.242h-0.329c-0.468,0-0.883-0.092-1.249-0.274
		c-0.362-0.184-0.541-0.545-0.541-1.071v-5.771l9.335,7.56h0.342v-7.55c0-0.43,0.058-0.733,0.169-0.908
		c0.116-0.179,0.275-0.307,0.473-0.381c0.202-0.081,0.599-0.145,1.182-0.193v-0.24h-4.578V84.858z"/>
	<path class="st0" d="M40.981,84.858h0.458c0.395,0,0.7,0.04,0.926,0.126c0.227,0.09,0.381,0.193,0.453,0.309
		c0.077,0.116,0.116,0.41,0.116,0.878v5.968c0,0.453-0.039,0.733-0.116,0.84c-0.096,0.155-0.231,0.265-0.405,0.329
		c-0.246,0.092-0.569,0.139-0.974,0.139h-0.458v0.242h7.222v-0.242h-0.459c-0.386,0-0.694-0.043-0.922-0.13
		c-0.227-0.087-0.376-0.188-0.458-0.303c-0.077-0.121-0.116-0.412-0.116-0.874V86.17c0-0.459,0.039-0.742,0.11-0.849
		c0.102-0.155,0.246-0.26,0.42-0.323c0.241-0.098,0.57-0.141,0.965-0.141h0.459v-0.24h-7.222V84.858z"/>
	<path class="st0" d="M61.166,84.858c0.483,0,0.868,0.04,1.163,0.112c0.213,0.058,0.372,0.135,0.478,0.242
		c0.111,0.096,0.164,0.217,0.164,0.35c0,0.117-0.039,0.262-0.111,0.426c-0.077,0.164-0.274,0.486-0.608,0.973l-2.727,4.019
		l-2.952-4.511c-0.309-0.479-0.492-0.767-0.55-0.878c-0.053-0.112-0.078-0.209-0.078-0.291c0-0.13,0.073-0.231,0.232-0.3
		c0.218-0.096,0.627-0.144,1.221-0.144h0.227v-0.24h-6.633v0.24c0.535,0.04,0.902,0.135,1.1,0.285
		c0.192,0.155,0.573,0.666,1.148,1.544l4.723,7.203h0.358l4.756-6.923c0.57-0.836,0.99-1.356,1.274-1.584
		c0.396-0.298,0.844-0.471,1.346-0.525v-0.24h-4.53V84.858z"/>
	<path class="st0" d="M70.348,92.978c-0.102,0.155-0.232,0.265-0.411,0.329c-0.246,0.092-0.574,0.139-0.97,0.139h-0.463v0.242
		h11.964l0.623-2.885h-0.376c-0.338,0.802-0.902,1.399-1.684,1.789c-0.776,0.392-1.818,0.583-3.111,0.583H75.09
		c-0.39,0-0.675-0.033-0.859-0.105c-0.173-0.072-0.294-0.159-0.362-0.271c-0.062-0.116-0.096-0.415-0.096-0.915v-2.55
		c0.661,0,1.172,0.054,1.52,0.17c0.352,0.117,0.651,0.338,0.916,0.666c0.26,0.332,0.439,0.758,0.516,1.273h0.395v-4.756h-0.395
		c-0.107,0.704-0.362,1.241-0.758,1.596c-0.401,0.367-1.037,0.545-1.915,0.545h-0.28v-3.694h1.447c1.042,0,1.756,0.043,2.137,0.119
		c0.651,0.135,1.153,0.349,1.515,0.634c0.352,0.283,0.627,0.757,0.825,1.412h0.395v-2.681H68.505v0.24h0.463
		c0.444,0,0.802,0.063,1.062,0.19c0.183,0.087,0.309,0.202,0.376,0.361c0.038,0.097,0.052,0.347,0.052,0.762v5.968
		C70.458,92.591,70.419,92.871,70.348,92.978z"/>
	<path class="st0" d="M89.935,93.027C89.843,92.9,89.8,92.591,89.8,92.1v-2.551h0.907l4.444,4.139h4.352v-0.251
		c-0.372-0.015-0.695-0.092-0.975-0.228c-0.188-0.096-0.492-0.347-0.931-0.737l-3.304-3.079c0.839-0.135,1.49-0.341,1.958-0.617
		c0.733-0.435,1.1-0.99,1.1-1.66c0-0.551-0.246-1.024-0.738-1.434c-0.487-0.404-1.119-0.684-1.891-0.834
		c-0.772-0.155-1.998-0.231-3.671-0.231h-6.422v0.24c0.632,0,1.066,0.04,1.293,0.112c0.236,0.078,0.395,0.173,0.492,0.303
		c0.087,0.13,0.135,0.439,0.135,0.926V92.1c0,0.491-0.049,0.8-0.135,0.926c-0.097,0.125-0.256,0.226-0.482,0.303
		c-0.227,0.078-0.661,0.116-1.303,0.116v0.242h7.092v-0.242c-0.632,0-1.066-0.032-1.303-0.11
		C90.191,93.258,90.032,93.157,89.935,93.027z M89.8,85.125h1.086c1.094,0,1.886,0.164,2.378,0.491
		c0.492,0.327,0.739,0.834,0.739,1.524c0,0.473-0.135,0.86-0.401,1.154c-0.27,0.294-0.637,0.502-1.105,0.612
		c-0.472,0.116-1.177,0.17-2.123,0.17H89.8V85.125z"/>
	<path class="st0" d="M107.463,93.89c1.394,0,2.533-0.274,3.439-0.82c0.903-0.545,1.356-1.192,1.356-1.948
		c0-0.6-0.28-1.125-0.84-1.587c-0.56-0.464-1.65-0.957-3.27-1.477c-1.158-0.372-1.892-0.632-2.21-0.776
		c-0.439-0.209-0.757-0.415-0.951-0.628c-0.145-0.153-0.217-0.332-0.217-0.531c0-0.318,0.202-0.592,0.608-0.84
		c0.405-0.24,0.955-0.361,1.65-0.361c0.897,0,1.737,0.228,2.504,0.69c0.777,0.464,1.264,1.071,1.457,1.829h0.414l-0.12-3.026h-0.304
		c-0.091,0.276-0.188,0.444-0.289,0.518c-0.101,0.07-0.241,0.105-0.42,0.105c-0.183,0-0.502-0.072-0.961-0.217
		c-0.458-0.145-0.849-0.242-1.167-0.3c-0.42-0.072-0.854-0.107-1.303-0.107c-1.23,0-2.248,0.253-3.058,0.764
		c-0.806,0.506-1.212,1.123-1.212,1.842c0,0.424,0.15,0.811,0.439,1.163c0.3,0.352,0.724,0.67,1.269,0.961
		c0.554,0.28,1.456,0.627,2.716,1.033c0.897,0.289,1.525,0.52,1.882,0.704c0.353,0.179,0.617,0.372,0.786,0.569
		c0.174,0.202,0.266,0.404,0.266,0.623c0,0.361-0.232,0.675-0.686,0.946c-0.453,0.274-1.055,0.41-1.828,0.41
		c-0.984,0-1.91-0.256-2.764-0.764c-0.854-0.5-1.433-1.239-1.732-2.199h-0.362v3.425h0.362c0.121-0.188,0.28-0.327,0.478-0.414
		c0.198-0.088,0.386-0.137,0.564-0.137c0.208,0,0.478,0.049,0.801,0.13c0.593,0.164,1.075,0.271,1.467,0.334
		C106.613,93.861,107.029,93.89,107.463,93.89z"/>
	<path class="st0" d="M117.507,92.978c-0.097,0.155-0.237,0.265-0.41,0.329c-0.246,0.092-0.57,0.139-0.97,0.139h-0.463v0.242h7.222
		v-0.242h-0.458c-0.386,0-0.69-0.043-0.922-0.13c-0.222-0.087-0.377-0.188-0.459-0.303c-0.071-0.121-0.116-0.412-0.116-0.874V86.17
		c0-0.459,0.039-0.742,0.111-0.849c0.101-0.155,0.241-0.26,0.42-0.323c0.246-0.098,0.564-0.141,0.965-0.141h0.458v-0.24h-7.222v0.24
		h0.463c0.386,0,0.694,0.04,0.921,0.126c0.228,0.09,0.382,0.193,0.459,0.309c0.072,0.116,0.111,0.41,0.111,0.878v5.968
		C117.618,92.591,117.579,92.871,117.507,92.978z"/>
	<path class="st0" d="M127.649,92.978c-0.101,0.15-0.261,0.26-0.473,0.343c-0.218,0.081-0.525,0.125-0.931,0.125h-0.459v0.242h6.2
		c0.892,0,1.548-0.031,1.964-0.083c0.941-0.116,1.736-0.283,2.384-0.491c0.651-0.213,1.225-0.491,1.722-0.84
		c0.492-0.358,0.903-0.796,1.216-1.331c0.313-0.542,0.468-1.129,0.468-1.766c0-0.923-0.319-1.748-0.951-2.481
		c-0.636-0.728-1.572-1.273-2.808-1.634c-1.008-0.294-2.335-0.444-3.994-0.444h-6.2v0.24h0.459c0.39,0,0.7,0.04,0.931,0.126
		c0.227,0.09,0.376,0.193,0.453,0.309c0.078,0.116,0.111,0.41,0.111,0.878v5.968C127.74,92.606,127.711,92.891,127.649,92.978z
		 M131.054,85.125c1.144-0.005,1.964,0.061,2.451,0.202c0.7,0.191,1.269,0.563,1.713,1.109c0.564,0.695,0.844,1.621,0.844,2.784
		c0,1.443-0.41,2.508-1.23,3.192c-0.599,0.513-1.477,0.762-2.616,0.762c-0.352,0-0.617-0.027-0.801-0.096
		c-0.13-0.047-0.227-0.11-0.28-0.193c-0.053-0.087-0.082-0.318-0.082-0.69V85.125z"/>
	<path class="st0" d="M152.355,93.297c-0.218,0.101-0.594,0.148-1.134,0.148h-0.274v0.242h6.686v-0.242
		c-0.42-0.018-0.743-0.101-0.98-0.24c-0.309-0.184-0.694-0.632-1.173-1.347l-4.984-7.434h-0.188l-4.949,7.235
		c-0.464,0.697-0.859,1.159-1.177,1.381c-0.323,0.222-0.73,0.358-1.226,0.404v0.242h4.598v-0.242
		c-0.72-0.032-1.167-0.087-1.356-0.159c-0.313-0.126-0.472-0.314-0.472-0.571c0-0.191,0.097-0.433,0.289-0.731l0.603-0.883h4.839
		l0.748,1.129c0.198,0.298,0.3,0.468,0.309,0.507c0.043,0.087,0.063,0.173,0.063,0.249
		C152.577,93.122,152.505,93.229,152.355,93.297z M146.962,90.605l2.113-3.108l2.06,3.108H146.962z"/>
	<path class="st0" d="M170.524,85.062c-1.008-0.294-2.345-0.444-3.994-0.444h-6.204v0.24h0.462c0.386,0,0.695,0.04,0.927,0.126
		c0.227,0.09,0.381,0.193,0.453,0.309c0.077,0.116,0.111,0.41,0.111,0.878v5.968c0,0.468-0.029,0.753-0.087,0.84
		c-0.107,0.15-0.261,0.26-0.478,0.343c-0.212,0.081-0.521,0.125-0.927,0.125h-0.462v0.242h6.204c0.887,0,1.544-0.031,1.958-0.083
		c0.941-0.116,1.737-0.283,2.384-0.491c0.651-0.213,1.225-0.491,1.723-0.84c0.497-0.358,0.902-0.796,1.216-1.331
		c0.312-0.542,0.468-1.129,0.468-1.766c0-0.923-0.319-1.748-0.956-2.481C172.685,85.968,171.754,85.423,170.524,85.062z
		 M169.371,92.413c-0.599,0.513-1.472,0.762-2.615,0.762c-0.348,0-0.618-0.027-0.796-0.096c-0.135-0.047-0.227-0.11-0.28-0.193
		c-0.058-0.087-0.082-0.318-0.082-0.69v-7.071c1.138-0.005,1.959,0.061,2.451,0.202c0.695,0.191,1.269,0.563,1.713,1.109
		c0.56,0.695,0.84,1.621,0.84,2.784C170.602,90.663,170.192,91.728,169.371,92.413z"/>
	<path class="st0" d="M201.806,85.75c-1.374-0.892-3.164-1.316-5.358-1.262c-2.036-0.054-3.759,0.37-5.153,1.268
		c-1.394,0.897-2.099,2.022-2.099,3.368c0,1.197,0.541,2.234,1.617,3.108c1.356,1.105,3.28,1.659,5.764,1.659
		c2.481,0,4.397-0.578,5.757-1.737c1.028-0.878,1.539-1.887,1.539-3.039C203.871,87.768,203.186,86.649,201.806,85.75z
		 M199.694,91.685c-0.334,0.623-0.796,1.076-1.395,1.36c-0.468,0.228-1.052,0.339-1.752,0.339c-1.041,0-1.854-0.262-2.427-0.778
		c-0.83-0.737-1.244-1.876-1.244-3.425c0-1.302,0.27-2.297,0.805-2.996c0.656-0.84,1.616-1.264,2.885-1.264
		c0.686,0,1.293,0.121,1.825,0.368c0.521,0.244,0.954,0.664,1.293,1.259c0.348,0.592,0.511,1.49,0.511,2.687
		C200.195,90.242,200.031,91.058,199.694,91.685z"/>
	<path class="st0" d="M220.187,92.472l-3.304-3.079c0.84-0.135,1.496-0.341,1.964-0.617c0.729-0.435,1.096-0.99,1.096-1.66
		c0-0.551-0.246-1.024-0.734-1.434c-0.488-0.404-1.119-0.684-1.896-0.834c-0.777-0.155-1.998-0.231-3.672-0.231h-6.421v0.24
		c0.631,0,1.066,0.04,1.297,0.112c0.231,0.078,0.395,0.173,0.487,0.303c0.091,0.13,0.135,0.439,0.135,0.926V92.1
		c0,0.491-0.043,0.8-0.135,0.926c-0.092,0.125-0.252,0.226-0.482,0.303c-0.227,0.078-0.661,0.116-1.303,0.116v0.242h7.093v-0.242
		c-0.633,0-1.067-0.032-1.298-0.11c-0.232-0.078-0.396-0.179-0.489-0.309c-0.09-0.126-0.13-0.435-0.13-0.926v-2.551h0.902
		l4.444,4.139h4.347v-0.251c-0.367-0.015-0.69-0.092-0.97-0.228C220.936,93.113,220.626,92.862,220.187,92.472z M216.194,88.294
		c-0.272,0.294-0.637,0.502-1.106,0.612c-0.468,0.116-1.177,0.17-2.118,0.17h-0.574v-3.951h1.085c1.091,0,1.882,0.164,2.375,0.491
		c0.492,0.327,0.738,0.834,0.738,1.524C216.594,87.613,216.458,88,216.194,88.294z"/>
	<path class="st0" d="M224.091,84.618v2.459h0.391c0.154-0.675,0.526-1.19,1.119-1.553c0.423-0.256,1.1-0.39,2.036-0.39h0.979v7.004
		c0,0.453-0.033,0.733-0.112,0.84c-0.1,0.155-0.236,0.265-0.414,0.329c-0.24,0.092-0.564,0.139-0.964,0.139h-0.463v0.242h7.227
		v-0.242h-0.459c-0.391,0-0.699-0.043-0.922-0.13c-0.231-0.087-0.386-0.188-0.459-0.303c-0.08-0.121-0.12-0.412-0.12-0.874v-7.004
		h1.023c0.646,0,1.101,0.043,1.36,0.119c0.465,0.15,0.832,0.349,1.096,0.594c0.265,0.246,0.507,0.655,0.729,1.23h0.362v-2.459
		H224.091z"/>
	<path class="st0" d="M200.475,10.532h-49.47v4.245c-4.043-4.034-13.991-4.202-13.991-4.202H110.03v13.151
		c-7.397-9.595-17.027-13.514-29.599-13.514c-19.004,0-35.673,15.473-35.673,34.669c0,19.198,16.418,33.512,35.422,33.512
		c12.573,0,22.93-5.296,29.951-13.191v12.679h19.703v-21.86l16.674,21.86h39.277v-50.16h14.69V10.532z M77.652,27.172
		c-0.02,0.034-0.039,0.063-0.063,0.098c-0.573,0.892-1.443,2.223-2.088,4.115c-0.844-0.103-1.723-0.224-2.616-0.367
		C75.172,28.233,76.923,27.412,77.652,27.172z M73.624,45.129c0.029,1.923,0.15,3.752,0.367,5.446
		c-1.525,0.199-3.054,0.459-4.53,0.776c-0.608-1.905-0.945-3.994-0.999-6.222H73.624z M68.461,43.825
		c0.049-2.026,0.333-3.971,0.83-5.769c1.491,0.356,3.04,0.641,4.613,0.863c-0.174,1.562-0.27,3.212-0.284,4.906H68.461z
		 M74.178,51.868c0.27,1.665,0.637,3.209,1.091,4.588c-0.951,0.116-1.945,0.256-2.948,0.421c-0.989-1.289-1.799-2.727-2.417-4.285
		C71.298,52.298,72.732,52.057,74.178,51.868z M74.062,37.621c-1.486-0.211-2.958-0.482-4.381-0.82
		c0.574-1.65,1.351-3.2,2.316-4.603c1.071,0.179,2.118,0.329,3.107,0.453C74.661,34.201,74.309,35.864,74.062,37.621z
		 M74.029,28.055c-0.796,0.69-1.766,1.578-2.626,2.71c-0.592-0.105-1.176-0.217-1.736-0.332
		C70.874,29.526,72.389,28.522,74.029,28.055z M67.868,31.948c0.159-0.15,0.323-0.3,0.492-0.448c0.41,0.092,1.187,0.256,2.219,0.448
		c-0.902,1.399-1.64,2.923-2.19,4.536c-1.486-0.396-2.61-0.776-3.339-1.042C65.837,34.167,66.782,32.995,67.868,31.948z
		 M64.399,36.599c0.651,0.246,1.886,0.675,3.609,1.134c-0.531,1.905-0.82,3.951-0.869,6.092h-4.593
		C62.613,41.283,63.236,38.856,64.399,36.599z M62.561,45.129h4.578c0.053,2.326,0.4,4.514,1.027,6.517
		c-1.694,0.412-2.89,0.807-3.425,0.99C63.444,50.349,62.696,47.762,62.561,45.129z M67.868,56.638
		c-0.902-0.863-1.713-1.822-2.412-2.86c0.598-0.197,1.674-0.536,3.146-0.887c0.584,1.524,1.346,2.947,2.268,4.236
		c-0.874,0.157-1.554,0.298-2.002,0.396C68.495,57.214,68.167,56.926,67.868,56.638z M70.266,58.574
		c0.414-0.078,0.921-0.173,1.505-0.274c0.681,0.805,1.413,1.549,2.205,2.214C72.673,60.012,71.429,59.361,70.266,58.574z
		 M77.309,61.2c-0.342-0.19-1.003-0.565-1.495-0.917c-0.897-0.643-1.742-1.396-2.513-2.234c0.859-0.13,1.655-0.242,2.421-0.329
		c0.715,1.786,1.477,2.972,2.075,3.716C77.613,61.353,77.425,61.263,77.309,61.2z M80.108,61.714
		c-0.473-0.193-1.727-1.148-3.025-4.139c1.081-0.098,2.095-0.153,3.025-0.168V61.714z M80.108,56.095
		c-1.062,0.02-2.239,0.092-3.512,0.211c-0.469-1.356-0.845-2.9-1.115-4.583c1.544-0.159,3.098-0.256,4.627-0.28V56.095z
		 M80.108,50.136c-1.597,0.029-3.219,0.126-4.815,0.289c-0.203-1.634-0.319-3.411-0.343-5.296h5.158V50.136z M80.108,43.825h-5.162
		c0.014-1.634,0.107-3.232,0.275-4.742c1.616,0.179,3.261,0.285,4.887,0.309V43.825z M80.108,38.085
		c-1.573-0.023-3.155-0.126-4.724-0.3c0.256-1.757,0.613-3.431,1.076-4.973c1.322,0.128,2.547,0.206,3.647,0.22V38.085z
		 M80.108,31.725c-0.984-0.02-2.069-0.081-3.228-0.193c1.081-2.88,2.335-4.263,3.228-4.635V31.725z M93.636,31.948
		c1.085,1.047,2.036,2.219,2.817,3.494c-0.723,0.265-1.848,0.646-3.338,1.042c-0.551-1.613-1.288-3.136-2.191-4.536
		c1.033-0.191,1.809-0.356,2.225-0.448C93.313,31.648,93.476,31.798,93.636,31.948z M91.599,52.592
		c-0.612,1.558-1.432,2.996-2.417,4.285c-1.003-0.164-1.993-0.305-2.948-0.421c0.459-1.38,0.825-2.923,1.091-4.588
		C88.772,52.057,90.211,52.298,91.599,52.592z M86.399,32.652c0.994-0.125,2.04-0.274,3.107-0.453
		c0.965,1.403,1.743,2.952,2.321,4.603c-1.428,0.338-2.9,0.609-4.381,0.82C87.195,35.864,86.848,34.201,86.399,32.652z
		 M87.513,50.575c0.213-1.694,0.339-3.523,0.367-5.446h5.162c-0.052,2.228-0.386,4.317-0.993,6.222
		C90.567,51.034,89.042,50.774,87.513,50.575z M87.885,43.825c-0.015-1.694-0.111-3.344-0.28-4.906
		c1.568-0.222,3.117-0.507,4.613-0.863c0.497,1.798,0.776,3.743,0.824,5.769H87.885z M91.836,30.433
		c-0.554,0.116-1.143,0.228-1.737,0.332c-0.859-1.132-1.828-2.021-2.624-2.71C89.115,28.522,90.63,29.526,91.836,30.433z
		 M88.623,31.018c-0.896,0.143-1.77,0.264-2.619,0.367c-0.642-1.892-1.51-3.223-2.089-4.115c-0.02-0.034-0.039-0.063-0.063-0.098
		C84.58,27.412,86.331,28.233,88.623,31.018z M81.395,26.897c0.893,0.372,2.152,1.755,3.233,4.635
		c-1.163,0.112-2.244,0.173-3.233,0.193V26.897z M81.395,33.033c1.101-0.014,2.326-0.092,3.648-0.22
		c0.463,1.542,0.824,3.216,1.075,4.973c-1.564,0.173-3.15,0.276-4.724,0.3V33.033z M81.395,39.392
		c1.631-0.023,3.272-0.13,4.888-0.309c0.169,1.51,0.26,3.108,0.274,4.742h-5.162V39.392z M81.395,45.129h5.158
		c-0.024,1.885-0.14,3.662-0.342,5.296c-1.597-0.163-3.219-0.26-4.816-0.289V45.129z M81.395,51.444
		c1.53,0.023,3.083,0.121,4.633,0.28c-0.275,1.683-0.646,3.227-1.12,4.583c-1.269-0.119-2.451-0.191-3.513-0.211V51.444z
		 M81.395,61.714v-4.307c0.932,0.014,1.945,0.07,3.025,0.168C83.123,60.566,81.873,61.521,81.395,61.714z M84.194,61.2
		c-0.111,0.063-0.304,0.153-0.488,0.237c0.599-0.744,1.361-1.93,2.075-3.716c0.767,0.087,1.564,0.199,2.422,0.329
		c-0.772,0.838-1.616,1.591-2.509,2.234C85.197,60.634,84.536,61.01,84.194,61.2z M87.528,60.513
		c0.791-0.664,1.524-1.408,2.205-2.214c0.583,0.101,1.09,0.197,1.505,0.274C90.075,59.361,88.83,60.012,87.528,60.513z
		 M93.641,56.638c-0.3,0.287-0.628,0.576-1.004,0.885c-0.443-0.098-1.129-0.238-1.997-0.396c0.916-1.289,1.679-2.712,2.268-4.236
		c1.472,0.35,2.547,0.69,3.14,0.887C95.348,54.816,94.538,55.775,93.641,56.638z M96.762,52.635c-0.53-0.182-1.732-0.578-3.421-0.99
		c0.623-2.002,0.971-4.191,1.028-6.517h4.574C98.812,47.762,98.06,50.349,96.762,52.635z M94.369,43.825
		c-0.049-2.142-0.343-4.187-0.873-6.092c1.722-0.459,2.957-0.888,3.613-1.134c1.157,2.257,1.78,4.684,1.853,7.226H94.369z
		 M135.329,41.384h-5.351V27.538h5.51c0,0,7.097-0.242,7.015,6.605C142.417,41.785,135.329,41.384,135.329,41.384z M165.507,74.607
		l-16.442-21.302c13.739-7.983,13.735-20.383,12.133-25.83h4.308V74.607z"/>
</g>
</svg>
